# xmcd
#
# Track frame offsets: 
#        150
#        20502
#        36397
#        54200
#        71132
#        87857
#        108095
#        122407
#        143697
#        165457
#        188422
#
# Disc length: 2780 seconds
#
# Revision: 0
# Processed by: cddbd v1.5.2PL0 Copyright (c) Steve Scherf et al.
# Submitted via: ExactAudioCopy v0.95b4
#
DISCID=830ada0b
DTITLE=Shapeshifter - Alienated
DYEAR=1998
DGENRE=Blues
TTITLE0=Marilyn's Saxophone
TTITLE1=Somebody Stop Me
TTITLE2=She Always Cries in Kingston
TTITLE3=No Moon
TTITLE4=Seen the Future
TTITLE5=Knock Me Down
TTITLE6=Too Many Strings Attached
TTITLE7=What Did I Know (and When Did I Know It)
TTITLE8=Every Grain of Sand
TTITLE9=Beyond This Town
TTITLE10=Rock City
EXTD=
EXTT0=
EXTT1=
EXTT2=
EXTT3=
EXTT4=
EXTT5=
EXTT6=
EXTT7=
EXTT8=
EXTT9=
EXTT10=
PLAYORDER=
